<?xml version="1.0" encoding="utf-8"?>
<!-- Generator: Adobe Illustrator 25.2.3, SVG Export Plug-In . SVG Version: 6.00 Build 0)  -->
<svg version="1.1" id="Layer_1" xmlns="http://www.w3.org/2000/svg" xmlns:xlink="http://www.w3.org/1999/xlink" x="0px" y="0px"
	 viewBox="0 0 540.89 496.19" style="enable-background:new 0 0 540.89 496.19;" xml:space="preserve">
<style type="text/css">
	.st0{fill:#1E9AD5;}
	.st1{fill:#86A640;}
	.st2{fill:#A66AAC;}
	.st3{fill:#C02137;}
</style>
<g>
	<path class="st0" d="M450.99,224.11c-23.49,0-47,0.53-70.47-0.16c-21-0.62-40.81-6.14-57.8-19.23
		c-17.48-13.47-26.83-31.97-31.22-53.08c-6.24-29.97-6.2-59.93,2.9-89.37c10.86-35.14,35.72-54.14,71.33-60.14
		c9.22-1.55,18.51-2.08,27.86-2.07C436.74,0.13,479.9,0.15,523.05,0c4.16-0.01,5.23,1.11,5.21,5.25
		c-0.19,27.82-0.18,55.65-0.01,83.48c0.02,3.94-1.04,5.14-5.03,5.06c-12.99-0.24-26-0.27-38.99,0.01c-4.32,0.09-5.25-1.39-5.17-5.4
		c0.25-11.99,0.06-23.99,0.11-35.99c0.01-2.43-0.18-4.13-3.39-4.1c-30.15,0.36-60.33-0.99-90.45,0.63
		c-28.05,1.51-40.48,12.93-45.22,40.6c-2.86,16.69-2.73,33.58,0.8,50.19c5.17,24.34,20.27,36.04,47.18,36.24
		c41.99,0.31,83.98,0.11,125.96,0.12c3.67,0,7.34,0.12,11-0.04c2.44-0.11,3.15,0.86,3.14,3.19c-0.07,13.83-0.15,27.66,0.04,41.49
		c0.06,3.92-2.12,3.71-4.77,3.71c-24.16-0.03-48.32-0.02-72.48-0.02C450.99,224.32,450.99,224.21,450.99,224.11z"/>
	<path class="st1" d="M376.94,272.08c23.5,0,47-0.46,70.48,0.15c18.54,0.48,36.22,5.09,52.1,15.2c19.02,12.11,30.07,30,35.51,51.32
		c7.84,30.74,7.98,61.72-0.61,92.33c-10.25,36.56-35.28,56.79-72.25,62.98c-9.22,1.54-18.51,2.08-27.86,2.07
		c-43.16-0.07-86.32-0.09-129.48,0.06c-4.2,0.02-5.21-1.18-5.18-5.28c0.18-27.83,0.18-55.66,0.01-83.49
		c-0.02-4.02,1.17-5.09,5.08-5.02c12.83,0.22,25.67,0.25,38.49-0.01c4.26-0.09,5.78,0.85,5.64,5.44
		c-0.35,11.99-0.08,23.99-0.15,35.99c-0.01,2.49,0.3,4.09,3.45,4.05c30.15-0.35,60.35,1.12,90.46-0.66
		c28.6-1.69,40.57-12.9,45.32-41.08c2.79-16.52,2.62-33.26-0.92-49.7c-5.27-24.5-20.46-36.09-47.69-36.25
		c-42.49-0.25-84.99-0.08-127.48-0.09c-12.11,0-12.11,0-12.11-12.16c0-10.5,0.16-21-0.09-31.49c-0.09-3.79,1.09-4.78,4.8-4.75
		c24.16,0.16,48.33,0.08,72.49,0.08C376.94,271.88,376.94,271.98,376.94,272.08z"/>
	<path class="st2" d="M163.98,271.84c24,0,48,0.09,71.99-0.08c4.02-0.03,5.5,0.89,5.4,5.2c-0.28,12.66-0.28,25.33,0,37.99
		c0.09,4.19-1.17,5.25-5.28,5.23c-43.66-0.14-87.32-0.06-130.99-0.12c-7.21-0.01-14.3,0.7-21.25,2.53
		c-17.5,4.59-26.63,16.88-29.92,33.86c-3.68,18.98-3.84,38.1,0.54,57.01c4.84,20.88,18.91,32.47,40.37,33.65
		c31.13,1.72,62.3,0.29,93.45,0.82c3.6,0.06,4.04-1.66,4.02-4.6c-0.1-12.16,0.08-24.33-0.11-36.5c-0.05-3.51,1.07-4.56,4.54-4.52
		c13.33,0.17,26.66,0.16,39.99,0.01c3.44-0.04,4.63,1,4.61,4.55c-0.12,28.33-0.11,56.66-0.01,84.99c0.01,3.16-0.76,4.31-4.16,4.3
		c-46.66-0.13-93.33,0.1-139.98-0.27c-16.07-0.13-31.77-3.37-46.44-10.35c-21.72-10.34-35.91-27.49-42.87-50.15
		c-10.32-33.61-10.54-67.64-0.46-101.34c10.29-34.39,34.49-53.41,69.24-59.95c10.53-1.98,21.16-2.28,31.83-2.27
		C126.98,271.85,145.48,271.84,163.98,271.84z"/>
	<path class="st3" d="M11.05,76.28c0-27.21,0.08-49.54-0.08-71.86c-0.02-3.49,0.92-4.47,4.42-4.41C28.71,0.22,42.04,0.23,55.37,0
		c3.63-0.06,4.32,1.11,4.31,4.49c-0.12,40.32-0.08,80.63-0.07,120.95c0,8.36,0.91,16.63,3.29,24.66
		c5.56,18.76,18.24,30.34,37.04,34.72c18.05,4.2,36.48,4.24,54.57,0.67c26.29-5.19,41.49-22.98,42.88-49.79
		c1.44-27.79,0.25-55.63,0.61-83.45c0.04-3.3-1.64-3.3-4.02-3.29c-12.33,0.06-24.66-0.1-36.98,0.11c-3.46,0.06-4.54-0.85-4.48-4.41
		c0.21-13.49,0.19-26.99,0.01-40.48c-0.04-3.29,0.9-4.16,4.17-4.15c28.65,0.12,57.31,0.11,85.97,0.01c2.92-0.01,4,0.52,3.98,3.77
		c-0.15,42.98,0.12,85.97-0.31,128.95c-0.18,18.66-4.18,36.66-13.75,53.05c-12.47,21.35-31.78,33.48-55.16,38.79
		c-33.07,7.5-66.5,7.8-99.45-0.64c-38.14-9.77-61.25-37.52-65.47-76.65C9.76,122.04,11.75,96.69,11.05,76.28z"/>
</g>
</svg>
